<?xml version="1.0" encoding="utf-8"?>
<!-- Generator: Adobe Illustrator 19.0.0, SVG Export Plug-In . SVG Version: 6.00 Build 0)  -->
<svg version="1.1" id="图层_1" xmlns="http://www.w3.org/2000/svg" xmlns:xlink="http://www.w3.org/1999/xlink" x="0px" y="0px"
	 viewBox="0 0 30.7 30.5" style="enable-background:new 0 0 30.7 30.5;" xml:space="preserve">
<style type="text/css">
	.st0{fill:url(#SVGID_1_);}
	.st1{fill:url(#SVGID_2_);}
	.st2{fill:url(#SVGID_3_);}
</style>
<g>
	
		<linearGradient id="SVGID_1_" gradientUnits="userSpaceOnUse" x1="213.898" y1="-199.1579" x2="244.4036" y2="-199.1579" gradientTransform="matrix(0.9992 3.920000e-002 -3.920000e-002 0.9992 -221.522 205.2663)">
		<stop  offset="0" style="stop-color:#202121"/>
		<stop  offset="1" style="stop-color:#171716"/>
	</linearGradient>
	<path class="st0" d="M30.5,15.8c-0.3,8.4-7.4,15-15.8,14.6C6.2,30.2-0.3,23.1,0,14.7C0.3,6.2,7.4-0.3,15.9,0
		C24.3,0.3,30.8,7.4,30.5,15.8z"/>
	
		<linearGradient id="SVGID_2_" gradientUnits="userSpaceOnUse" x1="244.5981" y1="-199.1594" x2="214.9248" y2="-199.1594" gradientTransform="matrix(0.9992 3.920000e-002 -3.920000e-002 0.9992 -221.522 205.2663)">
		<stop  offset="0" style="stop-color:#5C5C5C"/>
		<stop  offset="1" style="stop-color:#2A2B2B"/>
	</linearGradient>
	<path class="st1" d="M30.7,15.9c-0.3,8.4-7.2,15-15.4,14.7C7.1,30.2,0.7,23.1,1,14.7C1.4,6.3,8.3-0.3,16.5,0
		C24.7,0.4,31,7.4,30.7,15.9z"/>
	
		<linearGradient id="SVGID_3_" gradientUnits="userSpaceOnUse" x1="244.0427" y1="-199.1559" x2="214.3545" y2="-199.1559" gradientTransform="matrix(0.9992 3.920000e-002 -3.920000e-002 0.9992 -221.522 205.2663)">
		<stop  offset="0" style="stop-color:#414141"/>
		<stop  offset="1" style="stop-color:#2A2B2B"/>
	</linearGradient>
	<path class="st2" d="M30.1,15.8c-0.3,8.3-7.2,14.7-15.4,14.4C6.5,29.9,0.1,23,0.5,14.7C0.8,6.4,7.7-0.1,15.9,0.2
		C24.1,0.6,30.5,7.5,30.1,15.8z"/>
</g>
</svg>
