<?xml version="1.0" encoding="utf-8"?>
<!-- Generator: Adobe Illustrator 19.0.0, SVG Export Plug-In . SVG Version: 6.00 Build 0)  -->
<svg version="1.1" id="图层_1" xmlns="http://www.w3.org/2000/svg" xmlns:xlink="http://www.w3.org/1999/xlink" x="0px" y="0px"
	 viewBox="0 0 260 260" style="enable-background:new 0 0 260 260;" xml:space="preserve">
<style type="text/css">
	.meterbox_style0{fill:url(#SVGID_1_);}
	.meterbox_style1{fill:url(#SVGID_2_);}
	.meterbox_style2{fill:#040000;}
	.meterbox_style3{fill:url(#SVGID_3_);}
	.meterbox_style4{fill:url(#SVGID_4_);}
	.meterbox_style5{fill:#353535;stroke:#929497;stroke-width:1.8014;stroke-miterlimit:10;}
	.meterbox_style6{fill:none;stroke:#F5E829;stroke-width:0.5;stroke-miterlimit:10;}
</style>
<g>
	<linearGradient id="SVGID_1_" gradientUnits="userSpaceOnUse" x1="264.282" y1="239.7234" x2="68.8787" y2="80.0555">
		<stop  offset="0" style="stop-color:#363633"/>
		<stop  offset="1" style="stop-color:#262124"/>
	</linearGradient>
	<ellipse class="meterbox_style0" cx="130" cy="130" rx="126.3" ry="126.4"/>
	<linearGradient id="SVGID_2_" gradientUnits="userSpaceOnUse" x1="36.174" y1="39.3522" x2="223.1627" y2="220.0069">
		<stop  offset="0" style="stop-color:#363633"/>
		<stop  offset="1" style="stop-color:#262124"/>
	</linearGradient>
	<path class="meterbox_style1" d="M130,0C58.2,0,0,58.2,0,130c0,71.8,58.2,130,130,130c71.8,0,130-58.2,130-130C260,58.2,201.8,0,130,0z
		 M130,254.8C61.1,254.8,5.2,198.9,5.2,130C5.2,61.1,61.1,5.2,130,5.2c68.9,0,124.8,55.9,124.8,124.8
		C254.8,198.9,198.9,254.8,130,254.8z"/>
	<path class="meterbox_style2" d="M252.6,130c0,67.7-54.9,122.6-122.6,122.6C62.3,252.6,7.4,197.7,7.4,130C7.4,62.3,62.3,7.4,130,7.4
		C197.7,7.4,252.6,62.3,252.6,130z"/>
	<linearGradient id="SVGID_3_" gradientUnits="userSpaceOnUse" x1="130.0011" y1="252.5793" x2="130.0011" y2="7.4207">
		<stop  offset="0" style="stop-color:#FFFFFF;stop-opacity:0"/>
		<stop  offset="2.799128e-002" style="stop-color:#E8E6E5;stop-opacity:1.776284e-002"/>
		<stop  offset="7.579356e-002" style="stop-color:#C6C1BF;stop-opacity:4.809745e-002"/>
		<stop  offset="0.1296" style="stop-color:#A8A29F;stop-opacity:8.223607e-002"/>
		<stop  offset="0.189" style="stop-color:#8F8987;stop-opacity:0.12"/>
		<stop  offset="0.2562" style="stop-color:#7B7775;stop-opacity:0.1626"/>
		<stop  offset="0.3347" style="stop-color:#6C6969;stop-opacity:0.2124"/>
		<stop  offset="0.4317" style="stop-color:#626161;stop-opacity:0.2739"/>
		<stop  offset="0.5678" style="stop-color:#5C5C5D;stop-opacity:0.3603"/>
		<stop  offset="0.9455" style="stop-color:#5A5B5B;stop-opacity:0.6"/>
		<stop  offset="1" style="stop-color:#1A1A1A"/>
	</linearGradient>
	<path class="meterbox_style3" d="M252.6,130c0,67.7-54.9,122.6-122.6,122.6C62.3,252.6,7.4,197.7,7.4,130C7.4,62.3,62.3,7.4,130,7.4
		C197.7,7.4,252.6,62.3,252.6,130z"/>
	<radialGradient id="SVGID_4_" cx="130.0011" cy="130" r="122.5766" gradientUnits="userSpaceOnUse">
		<stop  offset="0" style="stop-color:#FFFFFF;stop-opacity:0"/>
		<stop  offset="2.022800e-002" style="stop-color:#E9E7E6;stop-opacity:0"/>
		<stop  offset="8.161477e-002" style="stop-color:#ACA5A1;stop-opacity:0"/>
		<stop  offset="0.1444" style="stop-color:#7D746F;stop-opacity:0"/>
		<stop  offset="0.2074" style="stop-color:#5A524F;stop-opacity:0"/>
		<stop  offset="0.2708" style="stop-color:#413C3A;stop-opacity:0"/>
		<stop  offset="0.3348" style="stop-color:#312E2D;stop-opacity:0"/>
		<stop  offset="0.3996" style="stop-color:#262726;stop-opacity:0"/>
		<stop  offset="0.4667" style="stop-color:#232424;stop-opacity:0"/>
		<stop  offset="1" style="stop-color:#070405;stop-opacity:0.75"/>
	</radialGradient>
	<path class="meterbox_style4" d="M252.6,130c0,67.7-54.9,122.6-122.6,122.6C62.3,252.6,7.4,197.7,7.4,130C7.4,62.3,62.3,7.4,130,7.4
		C197.7,7.4,252.6,62.3,252.6,130z"/>
</g>
<path class="meterbox_style5" d="M171.1,215.2H86.6c-3.4,0-6.1-2.7-6.1-6.1v-18.4c0-3.4,2.7-6.1,6.1-6.1h84.5c3.4,0,6.1,2.7,6.1,6.1v18.4
	C177.1,212.5,174.4,215.2,171.1,215.2z"/>
<line class="meterbox_style6" x1="126.4" y1="130" x2="133.6" y2="130"/>
<line class="meterbox_style6" x1="130" y1="126.4" x2="130" y2="133.6"/>
</svg>
